<svg xmlns="http://www.w3.org/2000/svg" version="1.1" xmlns:xlink="http://www.w3.org/1999/xlink" width="337" height="337"><svg xmlns="http://www.w3.org/2000/svg" version="1.1" xmlns:xlink="http://www.w3.org/1999/xlink" width="337" height="337"><svg width="337" height="337" viewBox="0 0 337 337" fill="none" xmlns="http://www.w3.org/2000/svg">
<path opacity="0.3" d="M129.688 39.3484C127.786 28.4101 132.69 13.9936 144.854 11.8232C161.618 8.83552 178.595 18.4752 189.402 30.2354C194.224 35.4843 197.793 43.1988 195.759 50.5274C193.52 58.6051 185.07 61.6745 177.474 62.2285C162.095 63.3546 133.135 58.2782 129.688 39.3484Z" fill="#0A8E62"></path>
<path opacity="0.3" d="M207.142 41.4371C200.472 42.386 198.61 44.5928 200.045 47.5078C201.561 50.5773 204.322 53.2971 207.033 55.4766C213.558 60.7301 221.222 64.6713 228.741 68.263C239.97 73.3394 251.735 76.3407 263.795 78.6882C270.161 79.9369 276.549 81.29 282.943 82.1935C286.734 82.7293 291.52 83.7192 295.293 82.3661C297.795 81.3444 302.122 80.9767 292.728 70.4742C289.109 66.5285 281.598 60.8618 276.999 58.1556C269.343 53.7466 258.06 49.4149 249.832 54.8273C249.265 55.236 248.752 55.7036 247.771 55.9216C246.795 56.135 245.16 56.0033 243.866 55.3858C241.75 54.3778 242.195 53.1337 242.863 52.3754C244.025 51.0541 245.001 49.76 244.561 48.3252C243.535 45.5781 240.924 43.948 238.336 43.2488C234.176 42.1726 226.126 39.1577 207.128 41.4371H207.142Z" fill="#0A8E62"></path>
<path opacity="0.3" d="M238.549 141.998C241.551 131.545 235.544 117.678 227.825 111.085C220.151 104.528 207.805 101.073 197.897 105.446C193.543 107.512 189.911 109.26 185.029 109.732C174.463 109.959 163.525 103.516 155.071 97.8992C147.606 92.9408 140.572 86.8337 132.599 82.62C125.824 79.3599 121.07 79.6278 114.455 83.0287C107.558 86.0618 102.082 91.7603 95.7793 95.7878C89.3725 99.4884 82.4344 101.813 75.7733 104.964C64.4127 110.418 54.5188 120.411 49.0292 131.745C47.1448 135.927 42.8585 146.007 48.4525 148.84C53.6152 151.456 61.0345 146.77 65.1801 143.587C71.4325 138.415 76.0276 131.354 81.6126 125.515C89.4043 117.928 100.406 112.343 111.349 111.585C118.782 111.058 132.572 113.614 134.688 122.496C135.723 127.172 135.632 131.949 136.322 136.68C137.98 145.462 142.112 156.55 148.369 162.476C155.148 168.896 179.154 187.667 211.265 172.642C223.47 166.93 234.863 155.415 238.554 142.002L238.549 141.998Z" fill="#0A8E62"></path>
<path opacity="0.3" d="M36.7968 256.766C35.698 255.213 28.0152 247.417 17.8942 228.124C15.7556 222.357 21.79 226.385 24.5734 229.473C25.8493 230.78 30.3673 236.601 32.3515 232.923C33.6093 230.63 33.6637 227.597 33.4049 225.059C33.0552 221.286 32.3061 217.558 31.7976 213.803C30.9803 204.109 31.5024 192.698 36.5516 184.085C36.6651 183.912 36.7832 183.74 36.9012 183.572C43.8574 173.614 58.7778 173.873 65.5206 183.971C69.9431 190.591 72.663 198.873 73.4486 205.743C74.0161 210.724 74.4883 216.332 72.109 220.991C69.3619 226.376 63.5908 229.159 58.3827 231.634C54.6912 233.709 47.9348 235.512 45.8961 239.675C43.6893 244.107 48.9882 248.507 51.4538 251.535C55.84 257.17 60.9982 263.568 63.7589 270.229C63.7906 277.19 54.8911 272.903 52.1168 271.01C46.9496 267.482 40.788 261.665 36.7923 256.766H36.7968Z" fill="#0A8E62"></path>
<path opacity="0.3" d="M317.443 156.287C315.79 153.481 314.156 148.836 316.235 146.334C323.323 137.802 334.175 166.39 335.365 162.834C336.604 133.429 320.985 99.9378 318.651 112.211C318.278 114.168 317.311 116.425 316.626 118.014C314.319 122.464 309.996 120.961 306.754 118.645C300.243 113.019 296.661 104.574 290.435 98.5847C284.228 92.5321 271.701 88.4229 261.144 86.643C256.771 85.9074 252.276 86.207 248.067 87.6101C232.266 92.8681 233.06 105.541 239.149 116.911C243.994 125.956 251.69 133.148 260.935 137.607C276.305 145.017 284.773 145.457 290.753 150.152C297.046 154.97 299.181 162.348 297.492 169.89C295.03 178.654 288.928 186.178 284.791 194.178C282.126 199.867 276.605 213.952 283.697 218.72C291.611 224.037 306.114 212.722 311.935 207.709C333.321 186.114 333.385 177.973 318.528 158.126C318.056 157.495 317.761 156.827 317.443 156.291V156.287Z" fill="#0A8E62"></path>
<path opacity="0.3" d="M65.2299 175.73C72.6856 152.641 102.404 149.444 121.456 155.688C139.278 161.527 167.076 183.077 155.815 205.53C144.895 227.298 113.587 219.533 97.2094 210.684C88.0192 205.716 78.2615 200.013 70.5833 192.657C65.7112 187.99 63.0368 182.45 65.2344 175.73H65.2299Z" fill="#0A8E62"></path>
<path opacity="0.76" d="M124.639 37.5318C120.902 26.7206 123.518 11.2462 135.532 7.03705C152.092 1.23869 170.949 8.24485 183.876 18.4294C189.647 22.9746 194.546 30.235 193.684 38.0221C192.735 46.6084 184.648 51.1173 177.01 52.9335C161.554 56.6114 131.264 56.2164 124.639 37.5318Z" fill="#0A8E62"></path>
<path opacity="0.7" d="M23.2793 254.405C31.5795 268.722 50.8135 293.963 69.1576 302.218C74.6653 304.697 80.8361 305.392 86.7434 304.129C102.799 300.692 105.996 284.972 104.729 248.761C103.489 237.273 98.2538 226.004 92.0695 216.396C86.5754 208.259 79.0516 200.381 69.8977 196.413C62.6373 193.647 54.6867 192.299 47.3854 195.804C29.2184 204.949 37.3053 230.113 44.5657 243.53C45.6781 245.483 46.8905 247.467 47.5398 249.211C48.1891 250.954 48.1209 252.394 46.9222 252.176C43.7256 250.936 41.696 247.49 39.7799 244.852C36.0566 239.48 32.2879 234.195 28.0334 229.223C24.4599 225.436 19.7785 220.083 14.2844 219.093C11.2059 218.525 10.1842 221.749 10.4294 224.174C11.2876 234.54 18.2392 245.528 23.2748 254.405H23.2793Z" fill="#0A8E62"></path>
<path opacity="0.86" d="M158.421 0.698635C148.341 1.802 145.431 5.03491 147.451 9.48925C149.581 14.1797 153.608 18.407 157.581 21.8215C167.144 30.04 178.477 36.3424 189.62 42.1135C206.27 50.2911 223.819 55.3811 241.85 59.4949C251.363 61.6835 260.912 64.0265 270.488 65.6974C276.164 66.6873 283.32 68.4127 289.059 66.5601C292.868 65.148 299.398 64.7984 285.781 48.543C280.523 42.4359 269.507 33.5408 262.714 29.2454C251.408 22.2393 234.649 15.1786 222.008 22.9204C221.136 23.5061 220.341 24.1872 218.857 24.4642C217.376 24.7411 214.929 24.4642 213.008 23.4698C209.875 21.8488 210.602 20.0007 211.646 18.8883C213.458 16.954 214.993 15.0606 214.398 12.8765C212.99 8.69464 209.135 6.11104 205.28 4.93956C199.078 3.11424 187.109 -1.81232 158.421 0.698635Z" fill="#0A8E62"></path>
<path opacity="0.78" d="M280.187 127.963C283.365 113.882 274.348 95.9603 263.618 87.8099C252.948 79.705 236.32 76.0679 223.525 82.6155C217.908 85.6849 213.227 88.2776 206.797 89.2766C192.812 90.3799 177.819 82.6745 166.186 75.8772C155.915 69.8746 146.125 62.319 135.242 57.3379C126.015 53.5375 119.731 54.2503 111.226 59.2586C102.318 63.8083 95.4931 71.7725 87.4426 77.589C79.2287 82.9833 70.2156 86.5885 61.6248 91.2744C46.9859 99.3658 34.6309 113.369 28.2196 128.803C26.0446 134.487 21.1271 148.177 28.7599 151.506C35.7978 154.575 45.2787 147.8 50.5322 143.269C58.4237 135.94 63.9769 126.233 70.9331 118.064C80.6817 107.416 94.8393 99.1705 109.283 97.3361C119.095 96.0693 137.562 98.4077 141.045 110.018C142.774 116.134 143.015 122.477 144.291 128.694C147.161 140.209 153.481 154.589 162.222 161.963C171.694 169.954 204.944 193.002 246.355 170.644C262.097 162.149 276.318 146.016 280.187 127.953V127.963Z" fill="#0A8E62"></path>
<path d="M96.8598 317.987C130.887 327.554 137.939 319.099 146.997 324.979C147.202 325.111 147.383 325.293 147.497 325.51C149.399 329.161 127.777 325.397 113.878 322.464C103.071 320.184 103.212 321.501 104.079 322.364C111.476 329.788 136.808 333.892 139.551 334.419C189.579 343.114 262.869 322.5 169.105 327.263C166.145 327.277 162.735 326.904 160.415 324.861C157.917 322.232 159.579 318.336 161.518 315.943C166.236 309.854 173.283 305.573 179.331 301.005C186.5 295.592 195.159 288.877 198.547 280.191C202.152 272.272 196.008 265.901 188.703 263.858C179.926 261.379 170.241 262.705 161.654 265.229C154.321 267.927 146.965 271.977 143.456 279.337C140.863 286.479 141.608 293.34 140.854 300.751C140.1 308.533 135.373 316.502 126.751 316.366C119.799 316.13 113.006 312.883 106.713 310.272C100.234 307.58 81.5126 300.21 76.5951 298.907C59.1047 294.276 68.976 303.293 72.7265 306.145C79.3013 311.149 89.8128 315.399 94.0583 317.051C94.9755 317.406 95.9063 317.719 96.8507 317.987H96.8598Z" fill="#0A8E62"></path>
<path opacity="0.86" d="M120.989 314.872C128.849 318.609 139.383 323.885 147.846 318.882C153.377 315.608 157.695 307.884 154.662 301.523C152.932 297.9 149.345 295.566 147.474 291.988C145.472 287.938 146.534 282.861 149.236 279.542C152.714 275.274 158.803 273.126 164.247 272.69C171.585 272.49 178.595 273.88 185.901 272.631C192.735 270.978 198.933 267.051 204.49 262.873C214.893 254.605 225.091 243.108 227.52 230.049C229.491 219.429 225.659 210.207 216.75 203.569C210.207 199.11 202.91 197.275 195.06 197.52C185.456 198.206 176.584 203.528 169.101 209.217C162.059 214.72 155.411 221.009 147.51 225.295C140.4 229.164 131.518 230.376 124.063 226.794C116.934 223.384 112.738 216.219 109.092 209.567C105.206 202.442 101.31 195.473 95.8655 189.397C85.6537 179.64 70.8559 174.663 57.0206 179.213C43.2626 183.949 42.9585 198.419 46.8997 210.357C50.455 219.792 57.5337 228.256 65.0666 234.631C72.1817 240.652 80.1324 245.288 88.8776 248.77C95.4615 251.213 102.758 253.347 107.835 258.469C111.408 262.828 114.042 268.726 110.523 273.971C108.184 277.453 104.148 279.292 101.469 282.498C98.1994 287.02 99.7841 293.164 101.787 297.555C105.246 305.137 113.497 310.922 120.984 314.872H120.989Z" fill="#0A8E62"></path>
<path opacity="0.86" d="M93.2822 71.4411C105.674 82.334 121.384 77.9297 135.142 73.3891C146.28 69.7112 160.211 59.9489 153.913 47.6574C147.701 30.7982 121.588 29.2998 120.489 25.5583C119.731 22.221 121.525 19.1833 122.546 16.1184C130.538 -8.20563 96.8511 20.5409 78.2482 37.8316C73.5487 42.1996 87.3794 20.3457 81.8762 23.6422C13.0815 64.8618 4.2273 128.639 13.5219 132.049C17.831 133.629 23.9789 127.899 27.1982 125.129C35.117 118.314 42.0687 110.336 48.8978 102.467C55.5271 94.6845 62.0111 86.8065 69.5394 79.8594C74.357 75.5004 86.4486 65.6791 93.2822 71.4457V71.4411Z" fill="#0A8E62"></path>
<path opacity="0.85" d="M1.74796 141.412C3.84118 133.085 7.60986 142.488 8.37269 148.246C8.80404 150.757 9.41247 161.027 14.6024 158.362C17.8625 156.718 20.319 153.268 22.0308 150.144C24.6099 145.521 26.6941 140.64 29.0733 135.918C35.7934 124.108 45.4104 111.39 58.0332 105.46C64.5853 102.817 70.797 102.508 76.7361 104.206C84.4869 106.422 90.0536 113.129 91.0843 121.125C92.7598 134.143 88.9003 149.181 83.3971 159.556C80.1188 165.741 76.223 172.565 69.8071 176.052C62.3877 180.08 53.5426 178.727 45.5966 177.46C39.7074 176.929 30.5036 173.669 24.8687 176.847C18.8297 180.202 21.4496 189.456 21.8946 194.891C22.494 204.849 23.3748 216.291 21.2861 226.135C17.4766 244.139 8.68596 222.308 7.26475 217.835C0.14054 195.404 -1.83912 171.63 1.74796 141.417V141.412Z" fill="#0A8E62"></path>
<path opacity="0.65" d="M307.458 142.143C304.465 138.302 301.137 131.727 303.734 127.608C312.589 113.578 334.243 153.876 335.314 148.368C331.437 104.51 301.764 57.8602 300.688 76.5176C300.515 79.4962 299.521 83.0288 298.808 85.5216C296.247 92.5686 289.549 91.1837 284.287 88.3776C273.535 81.2988 266.579 69.466 256.181 61.7878C245.796 54.0143 226.412 50.3501 210.407 49.7643C203.777 49.5237 197.166 50.845 191.195 53.7373C168.774 64.603 172.416 83.2558 183.658 98.9345C192.608 111.412 205.417 120.589 219.997 125.402C244.234 133.407 256.884 132.417 266.665 138.22C276.936 144.145 281.535 154.675 280.5 166.19C278.552 179.671 270.965 192.012 266.374 204.685C263.523 213.639 258.069 235.611 269.521 241.301C282.294 247.648 301.609 228.047 309.274 219.483C336.804 183.294 335.314 171.207 309.424 144.649C308.597 143.805 308.034 142.874 307.458 142.138V142.143Z" fill="#0A8E62"></path>
<path opacity="0.7" d="M172.03 199.513C188.185 174.372 223.271 160.823 252.517 165.527C262.61 167.152 273.072 171.852 276.201 182.409C280.419 196.644 271.451 213.444 264.259 224.759C248.862 248.988 214.848 278.374 182.964 266.219C155.221 255.644 159.334 219.887 172.03 199.509V199.513Z" fill="#0A8E62"></path>
<path opacity="0.76" d="M74.1027 152.251C85.7584 125.693 121.497 125.479 143.406 135.21C163.898 144.309 194.356 173.301 178.246 198.647C162.626 223.216 126.324 210.198 107.912 197.693C97.5821 190.673 86.662 182.709 78.4208 173.033C73.19 166.894 70.6791 159.979 74.1027 152.251Z" fill="#0A8E62"></path>
<path opacity="0.86" d="M202.888 330.546C193.529 331.009 183.004 332.857 173.737 330.937C168.193 329.788 163.557 325.951 162.912 320.116C162.009 311.952 167.348 304.719 172.602 299.284C184.062 287.438 200.113 280.545 215.338 274.038C227.693 268.535 239.803 262.433 252.303 257.265C258.614 254.655 266.806 250.822 273.898 251.907C285.854 253.737 278.793 270.533 275.687 276.808C261.625 305.21 236.138 328.757 202.888 330.546Z" fill="#0A8E62"></path>
<path opacity="0.3" d="M200.93 326.623C191.572 327.086 181.047 328.934 171.78 327.014C166.236 325.865 161.6 322.028 160.955 316.193C160.051 308.029 165.391 300.796 170.644 295.361C182.105 283.515 198.156 276.622 213.381 270.115C225.736 264.612 237.845 258.51 250.346 253.342C256.657 250.731 264.848 246.899 271.941 247.984C283.896 249.814 276.836 266.61 273.73 272.885C259.668 301.287 234.181 324.834 200.93 326.623Z" fill="#0A8E62"></path>
<path d="M296.842 274.488C313.138 257.688 326.982 229.504 332 206.928C334.674 194.737 337.73 177.351 335.896 153.494C335.496 148.291 334.533 143.146 333.017 138.156C330.129 128.657 326.447 118.532 321.801 110.458C317.724 103.375 305.537 88.4002 296.292 96.596C285.967 105.75 287.856 126.873 291.375 138.692C296.946 153.853 308.656 161.708 320.893 171.157C323.872 173.396 325.597 176.847 324.83 180.647C324.044 186.028 321.166 191.027 318.414 195.618C315.072 200.476 311.204 204.744 307.158 209.021C294.326 222.498 282.698 236.937 273.317 253.043C269.044 260.698 256.004 280.718 264.426 289.327C273.344 298.44 291.416 279.964 296.846 274.492L296.842 274.488Z" fill="#0A8E62"></path>
</svg></svg><style>@media (prefers-color-scheme: light) { :root { filter: none; } }
@media (prefers-color-scheme: dark) { :root { filter: none; } }
</style></svg>